<mxfile host="Electron" agent="Mozilla/5.0 (Windows NT 10.0; Win64; x64) AppleWebKit/537.36 (KHTML, like Gecko) draw.io/28.0.6 Chrome/138.0.7204.100 Electron/37.2.3 Safari/537.36" version="28.0.6">
  <diagram name="第 1 页" id="ewl9boTtj5eG1xmZE2dz">
    <mxGraphModel dx="61" dy="45" grid="1" gridSize="3.937" guides="1" tooltips="1" connect="1" arrows="1" fold="1" page="1" pageScale="1" pageWidth="48" pageHeight="48" background="#464647" math="0" shadow="0">
      <root>
        <mxCell id="0" />
        <mxCell id="1" parent="0" />
        <mxCell id="ktACBB8U2FfBJzfLgPZn-2" value="" style="endArrow=none;html=1;rounded=0;strokeWidth=1.9685;strokeColor=#EBEBEB;" parent="1" edge="1">
          <mxGeometry width="50" height="50" relative="1" as="geometry">
            <mxPoint x="20" y="24" as="sourcePoint" />
            <mxPoint x="4" y="24" as="targetPoint" />
          </mxGeometry>
        </mxCell>
        <mxCell id="ktACBB8U2FfBJzfLgPZn-3" value="" style="endArrow=none;html=1;rounded=0;strokeWidth=1.9685;strokeColor=#EBEBEB;" parent="1" edge="1">
          <mxGeometry width="50" height="50" relative="1" as="geometry">
            <mxPoint x="35.43" y="44" as="sourcePoint" />
            <mxPoint x="43.43" y="5" as="targetPoint" />
          </mxGeometry>
        </mxCell>
        <mxCell id="ktACBB8U2FfBJzfLgPZn-5" value="" style="endArrow=none;dashed=1;html=1;strokeWidth=2;rounded=0;strokeColor=#EBEBEB;dashPattern=1 2;" parent="1" edge="1">
          <mxGeometry width="50" height="50" relative="1" as="geometry">
            <mxPoint x="20" y="24" as="sourcePoint" />
            <mxPoint x="39" y="24" as="targetPoint" />
          </mxGeometry>
        </mxCell>
      </root>
    </mxGraphModel>
  </diagram>
</mxfile>
